<svg xmlns="http://www.w3.org/2000/svg" version="1.1" xmlns:xlink="http://www.w3.org/1999/xlink" xmlns:svgjs="http://svgjs.dev/svgjs" width="1000" height="1000" viewBox="0 0 1000 1000"><rect width="1000" height="1000" fill="#ffffff"></rect><g transform="matrix(0.7,0,0,0.7,150.0000000000001,106.25)"><svg viewBox="0 0 320 360" data-background-color="#ffffff" preserveAspectRatio="xMidYMid meet" height="1125" width="1000" xmlns="http://www.w3.org/2000/svg" xmlns:xlink="http://www.w3.org/1999/xlink"><g id="tight-bounds" transform="matrix(1,0,0,1,0,0)"><svg viewBox="0 0 320 360" height="360" width="320"><g><svg></svg></g><g><svg viewBox="0 0 320 360" height="360" width="320"><g><path xmlns="http://www.w3.org/2000/svg" d="M20.961 227.22l3.726 4.658-1.863-6.056c-0.466-2.795-3.726 0.466-1.863 1.398M25.153 224.425c1.397 2.329 2.795 4.658 2.795 6.987 0 3.261 2.795 4.658 5.123 5.589-3.261-3.726-5.124-13.974-7.918-12.576M204.017 26.929c7.918 0 15.371-0.932 23.756 0.931 20.495 5.124 37.729 15.371 49.374 29.811l32.606 52.169c1.397 13.042 4.192 27.482 3.726 43.319 3.261 0 2.795-4.658 6.521-5.59-3.726 9.316-5.59 20.961-6.521 34.469-2.329-7.453 0-18.632 0.466-24.687-3.261 5.124-5.124 1.397-5.124-0.932 0.466-3.726-1.397-3.261-2.795-4.658-5.124-4.658-8.384-9.782-12.11-17.7 2.329-6.055 2.795-14.905-4.658-19.563-2.329-1.397-5.124-3.726-6.521-7.453-1.863-5.124-5.124-11.179-4.193-19.097 0.466-2.329-6.987 5.124-11.179 1.863-18.166-12.576-36.332-27.016-58.224-39.127-11.645 0-20.029-4.192-24.221-9.316-3.726-4.658-0.932-10.713 4.658-11.179 3.261 0 6.987-0.932 9.782 0.932 0.466-1.863 2.329-4.192 4.657-4.192M157.904 16.215l0.932 0.466c4.658 0.932 6.987 7.453 12.11 5.124 0 3.261 0.466 6.521-0.466 8.85-1.397 3.726-5.59 3.726-8.85 3.726-31.208-1.863-49.374 11.179-68.471 22.358-5.124 3.261-10.713 5.59-14.906 9.782-20.029 18.632-41.921 35.866-47.045 70.335l-4.192 38.195c-0.466 4.192-5.124 8.384-4.192 13.508l3.26 22.824c-3.261-3.261-5.124 0.932-4.192 2.795 0.466 1.397 2.329 6.055 5.124 1.863 3.726 6.987 7.453 20.495 12.576 26.55 15.837 18.632 36.332 35.4 53.101 52.169 4.192-0.932 7.453-0.932 8.384-3.727 1.397 2.795-1.397 5.59-3.726 6.056 7.453 4.658 15.837 8.85 27.016 9.781 14.44 0.932 27.948 3.261 40.524 6.522 6.521-1.863 13.042-2.795 20.029-3.261 2.329 0 3.726-3.726 6.521-4.658l0.466-4.658c2.795 4.192 2.329-1.397 0.466-4.192 3.261 2.795 4.192 5.124 5.589 6.987 0-1.397 3.726-6.521 3.727-0.466l0.931-6.055c1.397-0.932 1.863 5.124 3.261 0.931 1.397-4.192 4.192-0.932 6.987-2.329-0.932 1.863-0.466 5.59 2.794 3.261l3.727-3.261c2.329 5.59 6.055 3.261 7.918 2.329 20.495-13.042 40.99-28.413 60.553-43.784l-0.466 6.055 2.329-7.453c2.329 2.329 4.192 0.466 5.124-0.931 2.795-4.658 6.521-9.316 12.577-13.508-7.453 20.029-16.303 35.866-27.482 48.908l-4.658 5.59c0 3.261-0.932 7.453-4.658 7.918-1.863 0.466-5.59-0.932-8.384 1.863-1.397 1.863 3.261 5.59-0.466 2.795-3.261-2.329-6.521 0-10.248 0.932-2.795 0.932 1.863 3.726 2.795 5.589 0.932 1.863 1.863 3.726 1.398 6.056l-5.124-5.59c-6.055 3.261-9.782 9.316-14.906 13.974-2.329 1.863-1.397 5.124-1.397 7.918-3.261 0-6.987-0.932-8.85 0.932-1.397 1.863-0.932 4.658-0.932 7.453-4.658-0.466-5.124-7.453-9.315-6.056-4.192 0.932-8.85 1.397-12.577 3.727 2.795 5.59-4.658 2.329-3.726 3.26-6.987-4.192-13.042-7.453-20.495-4.658-15.837-5.124-35.4-2.795-49.84-0.931 0-2.329 0.466-4.658-0.466-5.124-0.932 2.329-3.726 1.397-3.26 1.397-8.85-6.055-17.7-9.782-27.016-14.905-8.384 0.932-16.303-3.261-18.632-5.59-6.521-6.055-13.974-2.795-20.029-4.192-13.042-3.261-17.7-16.769-19.098-26.084-0.932-4.658-4.658-6.521-6.055-6.056-6.055-19.563-15.371-37.263-22.824-55.429-1.863-4.658-1.397-9.316-1.397-14.44 2.329 0.932 4.658 0.466 4.192-2.794-2.329-15.371-7.918-27.016-13.974-38.195 3.261-15.837 3.726-34.469 11.179-48.443 6.521-12.576 18.632-19.098 27.016-29.811 2.795-3.726 2.795-8.85 5.59-12.11 9.316-9.316 18.632-19.098 28.879-27.482 4.658-3.726 10.247 0 17.234-1.397 2.329-8.384 11.645-15.837 20.495-13.508 3.726 0.932 11.179-8.85 13.508-9.782 3.726-1.397 1.863 3.726 1.863 6.987 8.85-6.987 20.961-10.713 32.14-14.906" fill="#ff0000" fill-rule="nonzero" stroke="none" stroke-width="1" stroke-linecap="butt" stroke-linejoin="miter" stroke-miterlimit="10" stroke-dasharray="" stroke-dashoffset="0" font-family="none" font-weight="none" font-size="none" text-anchor="none" style="mix-blend-mode: normal" data-fill-palette-color="tertiary"></path></g><g transform="matrix(1,0,0,1,64,131.4065934065934)"><svg viewBox="0 0 192 97.18681318681317" height="97.18681318681317" width="192"><g><svg viewBox="0 0 192 97.18681318681317" height="97.18681318681317" width="192"><g><svg viewBox="0 0 192 97.18681318681317" height="97.18681318681317" width="192"><g><svg viewBox="0 0 192 97.18681318681317" height="97.18681318681317" width="192"><g><svg viewBox="0 0 192 97.18681318681317" height="97.18681318681317" width="192"><g><svg viewBox="0 0 192 97.18681318681317" height="97.18681318681317" width="192"><g transform="matrix(1,0,0,1,0,0)"><svg width="192" viewBox="3.549999952316284 -36.54999923706055 72.78999328613281 36.849998474121094" height="97.18681318681317" data-palette-color="#ff0000"><path d="M5.65 0L5.65 0Q4.9 0 4.23-0.38 3.55-0.75 3.55-1.5L3.55-1.5 3.55-34.5Q3.55-35.65 4.23-36.1 4.9-36.55 5.65-36.55L5.65-36.55Q6.45-36.55 7.03-36.25 7.6-35.95 8.08-35.38 8.55-34.8 9-33.9L9-33.9 16.9-18.85 24.8-33.9Q25.3-34.8 25.78-35.38 26.25-35.95 26.83-36.25 27.4-36.55 28.15-36.55L28.15-36.55Q29-36.55 29.63-36.1 30.25-35.65 30.25-34.5L30.25-34.5 30.25-1.5Q30.25-0.75 29.6-0.38 28.95 0 28.15 0L28.15 0Q27.35 0 26.7-0.38 26.05-0.75 26.05-1.5L26.05-1.5 26.05-27.75 18.45-13.55Q18.1-12.95 17.7-12.68 17.3-12.4 16.85-12.4L16.85-12.4Q16.5-12.4 16.07-12.65 15.65-12.9 15.3-13.55L15.3-13.55 7.75-27.95 7.75-1.5Q7.75-0.75 7.1-0.38 6.45 0 5.65 0ZM38.3 0.3L38.3 0.3Q37.15 0.3 36.4-0.5 35.65-1.3 35.65-2.3L35.65-2.3Q35.65-3.4 36.4-4.17 37.15-4.95 38.3-4.95L38.3-4.95Q39.3-4.95 40.07-4.17 40.85-3.4 40.85-2.3L40.85-2.3Q40.85-1.3 40.07-0.5 39.3 0.3 38.3 0.3ZM56.2 0.3L56.2 0.3Q53.15 0.3 50.72-0.78 48.3-1.85 46.87-4.25 45.45-6.65 45.45-10.6L45.45-10.6 45.45-25.65Q45.45-29.6 46.87-32 48.3-34.4 50.72-35.48 53.15-36.55 56.1-36.55L56.1-36.55Q59.4-36.55 61.82-35.43 64.25-34.3 65.62-32.3 67-30.3 67-27.6L67-27.6Q67-26.4 66.45-25.98 65.9-25.55 64.9-25.55L64.9-25.55Q64.05-25.55 63.45-25.88 62.85-26.2 62.8-27L62.8-27Q62.6-28.75 61.9-30.03 61.2-31.3 59.8-32.02 58.4-32.75 56.2-32.75L56.2-32.75Q53.1-32.75 51.37-31.03 49.65-29.3 49.65-25.65L49.65-25.65 49.65-10.6Q49.65-6.95 51.37-5.23 53.1-3.5 56.2-3.5L56.2-3.5Q59.3-3.5 61.05-5.23 62.8-6.95 62.8-10.6L62.8-10.6 62.8-15.7 56.85-15.7Q56.15-15.7 55.77-16.25 55.4-16.8 55.4-17.45L55.4-17.45Q55.4-18.1 55.77-18.65 56.15-19.2 56.85-19.2L56.85-19.2 65.55-19.2Q66.25-19.2 66.62-18.75 67-18.3 67-17.65L67-17.65 67-10.6Q67-6.65 65.57-4.25 64.15-1.85 61.7-0.78 59.25 0.3 56.2 0.3ZM73.79 0.3L73.79 0.3Q72.64 0.3 71.89-0.5 71.14-1.3 71.14-2.3L71.14-2.3Q71.14-3.4 71.89-4.17 72.64-4.95 73.79-4.95L73.79-4.95Q74.79-4.95 75.57-4.17 76.34-3.4 76.34-2.3L76.34-2.3Q76.34-1.3 75.57-0.5 74.79 0.3 73.79 0.3Z" opacity="1" transform="matrix(1,0,0,1,0,0)" fill="#ff0000" class="undefined-text-0" data-fill-palette-color="primary" id="text-0"></path></svg></g></svg></g></svg></g></svg></g><g></g></svg></g></svg></g></svg></g></svg></g><defs></defs></svg><rect width="320" height="360" fill="none" stroke="none" visibility="hidden"></rect></g></svg></g></svg>